#!OML:ASF E:\motion texture\Top Level 1\Subject 1\Session 1\male.ASF
:FULLY-SPECIFIED
:DEGREES
306
root 28.474 17.608 4.99823 6.50688 -86.0595 0.267982
lowerback -1.89916 1.57609 0.277905
upperback -2.82158 2.07223 0.480196
thorax -1.83547 1.02109 0.342117
lowerneck -4.61577 -1.95815 -8.52162
upperneck -20.5201 -1.57373 12.2008
head -5.14325 -1.18726 5.41679
rclavicle -5.60014e-015 1.19271e-015
rhumerus 26.2072 38.1204 -76.2006
rradius 103.555
rwrist 26.5473
rhand -42.0578 -42.3207
rfingers 7.12502
rthumb -14.9508 -71.7611
lclavicle -5.60014e-015 1.19271e-015
lhumerus 13.0144 -24.8465 83.6245
lradius 113.658
lwrist 32.6425
lhand -18.5234 52.9467
lfingers 7.12502
lthumb 7.76522 82.7841
rfemur -34 -1.87851 14.0798
rtibia 18.5401
rfoot -3.87907 -16.2436
rtoes 2.49759
lfemur -1.18407 -6.74785 -22.4819
ltibia 13.9838
lfoot -14.2939 -6.54756
ltoes 5.62755
307
root 28.3563 17.5991 4.98047 6.37587 -85.8167 0.471781
lowerback -1.91126 1.55298 0.274189
upperback -2.75466 2.04244 0.490559
thorax -1.76025 1.00702 0.356215
lowerneck -4.91932 -2.05827 -8.52165
upperneck -20.0901 -1.69931 12.2299
head -4.94448 -1.23254 5.40737
rclavicle 1.93691e-014 -4.96962e-015
rhumerus 25.6601 38.5411 -76.1987
rradius 103.156
rwrist 26.765
rhand -42.0615 -41.9123
rfingers 7.12502
rthumb -14.9544 -71.3524
lclavicle 1.93691e-014 -4.96962e-015
lhumerus 12.3858 -25.2401 83.7081
lradius 113.587
lwrist 32.8602
lhand -18.4308 53.1132
lfingers 7.12502
lthumb 7.85458 82.9473
rfemur -33.9905 -1.69866 13.9821
rtibia 17.9833
rfoot -3.71719 -16.4748
rtoes 2.52179
lfemur -0.930522 -6.7796 -22.3997
ltibia 14.1251
lfoot -14.4471 -6.75111
ltoes 5.31435
308
root 28.2376 17.5908 4.96239 6.3354 -85.5798 0.584066
lowerback -1.91944 1.52723 0.274358
upperback -2.68721 2.00913 0.506303
thorax -1.68674 0.991144 0.373486
lowerneck -5.23737 -2.15869 -8.52288
upperneck -19.6459 -1.82558 12.2588
head -4.73981 -1.2774 5.39741
rclavicle -1.12997e-014 -5.76476e-015
rhumerus 25.0317 38.9795 -76.2455
rradius 102.724
rwrist 26.9059
rhand -42.0878 -41.462
rfingers 7.12502
rthumb -14.9798 -70.9002
lclavicle -1.12997e-014 -5.76476e-015
lhumerus 11.6916 -25.6516 83.8161
lradius 113.474
lwrist 33.0374
lhand -18.3328 53.2607
lfingers 7.12502
lthumb 7.9491 83.0912
rfemur -33.9776 -1.5357 13.9105
rtibia 17.5146
rfoot -3.54544 -16.6712
rtoes 2.57524
lfemur -0.689104 -6.8147 -22.3066
ltibia 14.2918
lfoot -14.58 -6.95727
ltoes 4.97917
309
root 28.1178 17.5832 4.94399 6.37962 -85.3484 0.610063
lowerback -1.92682 1.49899 0.280603
upperback -2.61676 1.97248 0.526455
thorax -1.61052 0.973519 0.391841
lowerneck -5.56537 -2.25869 -8.52644
upperneck -19.1944 -1.95121 12.2907
head -4.5321 -1.32154 5.38843
rclavicle 1.34956e-014 5.56597e-015
rhumerus 24.3249 39.4292 -76.3437
rradius 102.257
rwrist 26.9686
rhand -42.1045 -41.0203
rfingers 7.12502
rthumb -14.9958 -70.4574
lclavicle 1.34956e-014 5.56597e-015
lhumerus 10.9399 -26.0792 83.9474
lradius 113.313
lwrist 33.1693
lhand -18.2294 53.3868
lfingers 7.12502
lthumb 8.04896 83.2135
rfemur -33.96 -1.39031 13.8664
rtibia 17.1307
rfoot -3.36486 -16.8327
rtoes 2.66046
lfemur -0.461565 -6.85322 -22.2019
ltibia 14.487
lfoot -14.6907 -7.16779
ltoes 4.62079
310
root 27.997 17.5763 4.9252 6.52821 -85.123 0.530439
lowerback -1.92905 1.46828 0.294011
upperback -2.54731 1.93248 0.552453
thorax -1.53817 0.954104 0.411943
lowerneck -5.9033 -2.35809 -8.53098
upperneck -18.7314 -2.07643 12.3224
head -4.32023 -1.36485 5.37903
rclavicle 2.06363e-014 -1.59028e-015
rhumerus 23.5332 39.8862 -76.5028
rradius 101.754
rwrist 26.9507
rhand -42.1188 -40.5638
rfingers 7.12502
rthumb -15.0096 -69.9998
lclavicle 2.06363e-014 -1.59028e-015
lhumerus 10.1273 -26.5193 84.1068
lradius 113.101
lwrist 33.2498
lhand -18.114 53.4927
lfingers 7.12502
lthumb 8.16033 83.3151
rfemur -33.9375 -1.2594 13.853
rtibia 16.8274
rfoot -3.17523 -16.9639
rtoes 2.7855
lfemur -0.249864 -6.89405 -22.0814
ltibia 14.7125
lfoot -14.7764 -7.3825
ltoes 4.2317
